#N canvas 370 677 450 300 10;
#X obj 9 56 hid 0;
#X obj 9 10 loadbang;
#X obj 9 78 route key;
#X obj 9 150 s KEYBOARD;
#X obj 9 100 t a a;
#X obj 41 124 print keyboard;
#X msg 237 37 open 0x04d9 0x1203 \, 10;
#X text 235 14 old keyboard;
#X msg 9 33 open 0x18d8 0x0003 \, 10;
#X connect 0 0 2 0;
#X connect 1 0 8 0;
#X connect 2 0 4 0;
#X connect 4 0 3 0;
#X connect 4 1 5 0;
#X connect 8 0 0 0;
