#N canvas 589 243 450 300 10;
#X obj 12 12 inlet~;
#X obj 12 108 outlet~;
#X obj 52 34 r \$1/mute;
#X obj 52 56 == 0;
#X obj 12 86 *~ 1;
#X connect 0 0 4 0;
#X connect 2 0 3 0;
#X connect 3 0 4 1;
#X connect 4 0 1 0;
