#N canvas 1423 596 450 300 10;
#X obj 192 88 vol \$1;
#X obj 192 130 fx-router \$1;
#X obj 261 154 throw~ fx/bus;
#X obj 192 182 random-stereo-phase \$2 \$3;
#X obj 339 204 throw~ mix/right;
#X obj 192 204 throw~ mix/left;
#X obj 9 10 inlet~;
#X obj 10 39 fx/looper clock/tick 32 \$1/loop;
#X obj 192 109 mute \$1;
#X obj 192 66 fx/snatch \$1 clock/bpm;
#X connect 0 0 8 0;
#X connect 1 0 3 0;
#X connect 1 1 2 0;
#X connect 3 0 5 0;
#X connect 3 1 4 0;
#X connect 6 0 7 0;
#X connect 7 1 9 0;
#X connect 8 0 1 0;
#X connect 9 0 0 0;
