#N struct 1439-f float x;
#N canvas 2 50 474 481 10;
#X obj 19 15 inlet;
#X obj 19 37 t a a;
#X obj 51 60 print key;
#X obj 19 136 route 0 1 2;
#X obj 68 162 list append;
#X obj 68 338 list;
#X obj 68 285 list-unique;
#X obj 19 249 list-filter;
#X obj 107 249 != -1;
#X obj 68 307 list-sort;
#X obj 19 224 list;
#X obj 19 188 t b f;
#X obj 68 390 outlet;
#X obj 19 89 list split 2;
#X connect 0 0 1 0;
#X connect 1 0 13 0;
#X connect 3 0 11 0;
#X connect 3 1 4 0;
#X connect 3 2 4 0;
#X connect 4 0 6 0;
#X connect 5 0 4 1;
#X connect 5 0 10 1;
#X connect 5 0 12 0;
#X connect 6 0 9 0;
#X connect 7 0 5 0;
#X connect 7 1 8 0;
#X connect 8 0 7 1;
#X connect 9 0 5 0;
#X connect 10 0 7 0;
#X connect 11 0 10 0;
#X connect 11 1 8 1;
#X connect 13 0 3 0;
