#N struct 1049-f float x;
#N struct 1181-f float x;
#N struct 1192-f float x;
#N struct 1203-f float x;
#N struct 1214-f float x;
#N struct 1225-f float x;
#N struct 1236-f float x;
#N canvas 210 146 909 642 10;
#X declare -path ./patches;
#X declare -path ./patches/lib;
#X declare -path ./patches/lib/lolPd;
#X declare -path ./patches/lib/rjlib/rj;
#X declare -path ./patches/lib/list-abs;
#X declare -path ./patches/lib/s-abstractions/trunk;
#X declare -path ./patches/lib/pd-midi-guis;
#X declare -path ./patches/lib/blockhead;
#X obj 771 52 loadbang;
#X obj 268 9 6581-hum;
#X obj 65 35 arp;
#N canvas 335 79 450 631 arp-data 0;
#X obj 15 546 outlet;
#X obj 15 12 r \$0/notes;
#X text 44 194 add rootnote;
#X obj 15 215 lol teef ^ done \; each \; concat \$0/rootnote \; + \;
gather ^ done \; list prepend notes \;;
#X obj 15 129 route bang;
#X msg 273 262 list notes bang;
#X obj 300 13 r arp-cutoff;
#X obj 300 35 list prepend cutoff;
#X obj 217 420 r arp-wave;
#X obj 127 10 r \$0/rootnote;
#X msg 127 32 bang;
#X obj 15 84 list;
#X obj 15 34 t b a;
#X obj 127 54 delay 1;
#X obj 217 442 sel square saw triangle noise;
#X msg 217 464 1;
#X msg 267 464 0;
#X obj 217 492 list prepend waveform;
#N canvas 2 50 450 300 magic-freq 0;
#X obj 12 11 inlet;
#X obj 12 85 outlet;
#X obj 93 94 list length;
#X obj 116 185 >;
#X obj 93 116 t f f b;
#X obj 139 160 0;
#X obj 12 33 t a a a;
#X obj 116 210 sel 1;
#X obj 116 232 list;
#X obj 116 254 s magic/notes;
#X obj 227 20 r \$0/rootnote;
#X obj 227 42 s magic/rootnote;
#X connect 0 0 6 0;
#X connect 2 0 4 0;
#X connect 3 0 7 0;
#X connect 4 0 5 1;
#X connect 4 1 3 0;
#X connect 4 2 5 0;
#X connect 5 0 3 1;
#X connect 6 0 1 0;
#X connect 6 1 2 0;
#X connect 6 2 8 1;
#X connect 7 0 8 0;
#X connect 8 0 9 0;
#X connect 10 0 11 0;
#X restore 15 107 pd magic-freq;
#X obj 301 118 list prepend rez;
#X obj 301 96 r arp-rez;
#X connect 1 0 12 0;
#X connect 3 0 0 0;
#X connect 4 0 5 0;
#X connect 4 1 3 0;
#X connect 5 0 0 0;
#X connect 6 0 7 0;
#X connect 7 0 0 0;
#X connect 8 0 14 0;
#X connect 9 0 10 0;
#X connect 10 0 13 0;
#X connect 11 0 18 0;
#X connect 12 0 11 0;
#X connect 12 1 11 1;
#X connect 13 0 11 0;
#X connect 14 0 15 0;
#X connect 14 1 16 0;
#X connect 15 0 17 0;
#X connect 16 0 17 0;
#X connect 17 0 0 0;
#X connect 18 0 4 0;
#X connect 19 0 0 0;
#X connect 20 0 19 0;
#X restore 65 14 pd arp-data;
#N canvas 2 50 450 300 declarations 0;
#X obj 262 15 declare -path ./patches;
#X obj 234 40 declare -path ./patches/lib;
#X obj 193 64 declare -path ./patches/lib/lolPd;
#X obj 172 87 declare -path ./patches/lib/rjlib/rj;
#X obj 172 109 declare -path ./patches/lib/list-abs;
#X obj 88 153 declare -path ./patches/lib/s-abstractions/trunk;
#X obj 145 131 declare -path ./patches/lib/pd-midi-guis;
#X obj 88 175 declare -path ./patches/lib/blockhead;
#X restore 769 12 pd declarations;
#N canvas 2 50 450 366 metronome 0;
#X obj 20 322 outlet~;
#X obj 23 23 r clock/tick;
#X msg 23 75 1 \, 0 50;
#X obj 23 97 line~;
#X obj 20 191 osc~ 440;
#X obj 20 213 *~;
#X obj 23 47 t b f;
#X obj 98 73 mod 4;
#X obj 98 95 == 0;
#X obj 98 117 * 5;
#X obj 98 161 mtof;
#X obj 98 139 + 72;
#X obj 20 237 *~ 0.25;
#X obj 20 259 *~ 0;
#X obj 245 70 inlet;
#X connect 1 0 6 0;
#X connect 2 0 3 0;
#X connect 3 0 5 1;
#X connect 4 0 5 0;
#X connect 5 0 12 0;
#X connect 6 0 2 0;
#X connect 6 1 7 0;
#X connect 7 0 8 0;
#X connect 8 0 9 0;
#X connect 9 0 11 0;
#X connect 10 0 4 0;
#X connect 11 0 10 0;
#X connect 12 0 13 0;
#X connect 13 0 0 0;
#X connect 14 0 13 1;
#X restore 22 462 pd metronome;
#X obj 65 79 *~ 0.125;
#X obj 437 209 fx/bus-fx1;
#X obj 494 177 r fx-1/select;
#X obj 64 98 fx/reverb;
#X obj 132 49 r arp-reverb;
#X obj 39 604 s~ master/left;
#X obj 139 604 s~ master/right;
#X obj 813 316 gba-clock;
#N canvas 1302 637 450 300 keyboard 0;
#X obj 16 79 key-map key_comma -1 key_dot 1;
#N canvas 615 438 450 420 process-keys 0;
#X obj 19 15 inlet;
#X obj 19 37 t a a;
#X obj 51 60 print key;
#X obj 19 82 swap;
#X obj 19 114 pack f f;
#X obj 19 136 route 0 1 2;
#X obj 68 162 list append;
#X obj 68 338 list;
#X obj 68 285 list-unique;
#X obj 19 249 list-filter;
#X obj 107 249 != -1;
#X obj 68 307 list-sort;
#X obj 19 224 list;
#X obj 19 188 t b f;
#X obj 68 390 s \$0/notes;
#X connect 0 0 1 0;
#X connect 1 0 3 0;
#X connect 3 0 4 0;
#X connect 3 1 4 1;
#X connect 4 0 5 0;
#X connect 5 0 13 0;
#X connect 5 1 6 0;
#X connect 5 2 6 0;
#X connect 6 0 8 0;
#X connect 7 0 6 1;
#X connect 7 0 12 1;
#X connect 7 0 14 0;
#X connect 8 0 11 0;
#X connect 9 0 7 0;
#X connect 9 1 10 0;
#X connect 10 0 9 1;
#X connect 11 0 7 0;
#X connect 12 0 9 0;
#X connect 13 0 12 0;
#X connect 13 1 10 1;
#X restore 16 46 pd process-keys;
#X obj 16 11 key-map key_z 0 key_s 1 key_x 2 key_d 3 key_c 4 key_v
5 key_g 6 key_b 7 key_h 8 key_n 9 key_j 10 key_m 11;
#X obj 16 134 key-map key_y square key_t saw key_r triangle key_u noise
;
#N canvas 118 382 450 463 process-octave 0;
#X obj 13 11 inlet;
#X obj 13 33 unpack f f;
#X obj 80 58 > 0;
#X obj 13 95 list prepend;
#X obj 13 159 change;
#X obj 13 117 route 1 0;
#X msg 43 137 0;
#X obj 13 181 sel 0;
#X obj 45 316 + 60;
#X obj 45 292 * 12;
#X obj 63 204 min 3;
#X obj 63 226 max -3;
#X obj 45 248 + 0;
#X floatatom 45 270 5 0 0 0 - - -, f 5;
#X obj 45 388 s \$0/rootnote;
#X obj 45 358 + -0.5;
#X obj 91 276 / 127;
#X obj 91 298 - 0.5;
#X obj 91 254 r arp-tuning;
#X obj 91 320 t b f;
#X connect 0 0 1 0;
#X connect 1 0 3 0;
#X connect 1 1 2 0;
#X connect 2 0 3 1;
#X connect 3 0 5 0;
#X connect 4 0 7 0;
#X connect 5 0 4 0;
#X connect 5 1 6 0;
#X connect 6 0 4 0;
#X connect 7 1 12 0;
#X connect 8 0 15 0;
#X connect 9 0 8 0;
#X connect 10 0 11 0;
#X connect 11 0 12 1;
#X connect 12 0 10 0;
#X connect 12 0 13 0;
#X connect 13 0 9 0;
#X connect 15 0 14 0;
#X connect 16 0 17 0;
#X connect 17 0 19 0;
#X connect 18 0 16 0;
#X connect 19 0 15 0;
#X connect 19 1 15 1;
#X restore 16 101 pd process-octave;
#N canvas 121 514 450 300 process-wave 0;
#X obj 12 13 inlet;
#X obj 12 65 list split 1;
#X obj 84 157 list;
#X obj 52 90 sel 0;
#X obj 12 35 t a a;
#X msg 84 114 bang;
#X obj 84 179 list split 1;
#X obj 84 241 s arp-wave;
#X connect 0 0 4 0;
#X connect 1 1 3 0;
#X connect 2 0 6 0;
#X connect 3 1 5 0;
#X connect 4 0 1 0;
#X connect 4 1 2 1;
#X connect 5 0 2 0;
#X connect 6 0 7 0;
#X restore 16 156 pd process-wave;
#X connect 0 0 4 0;
#X connect 2 0 1 0;
#X connect 3 0 5 0;
#X restore 801 402 pd keyboard;
#X obj 801 338 midi-config;
#X msg 531 518 bang;
#X obj 531 540 \$0;
#X text 529 498 test note;
#N canvas 2 50 450 300 hidkeys 0;
#X obj 14 16 netreceive -u 11031;
#X obj 14 38 t a a;
#X obj 14 82 print;
#X obj 53 82 route key mouse;
#X obj 14 60 spigot;
#X obj 53 126 s KEYBOARD;
#X obj 96 106 s MOUSE;
#X obj 53 38 inlet;
#X connect 0 0 1 0;
#X connect 1 0 4 0;
#X connect 1 1 3 0;
#X connect 3 0 5 0;
#X connect 3 1 6 0;
#X connect 4 0 2 0;
#X connect 7 0 4 1;
#X restore 801 381 pd hidkeys;
#X obj 771 94 \$0;
#X msg 771 74 bang;
#X obj 14 14 adc~ 1;
#X obj 438 153 catch~ fx/bus;
#X obj 62 485 catch~ mix/left;
#X obj 107 514 catch~ mix/right;
#X obj 437 275 throw~ mix/left;
#X obj 572 276 throw~ mix/right;
#X obj 22 440 tgl 15 0 empty metronome empty 17 7 0 10 -262144 -1 -1
0 1;
#X obj 64 383 throw~ mix/left;
#X obj 163 383 throw~ mix/right;
#X obj 268 113 throw~ mix/left;
#X obj 113 154 single-loop channel-1 0 8;
#X obj 368 113 throw~ mix/right;
#N canvas 2 50 450 300 mixer 0;
#X obj 119 152 freeverb~;
#N canvas 30 80 678 712 autocompress 0;
#X obj 162 62 hip~ 5;
#X obj 339 63 hip~ 5;
#X obj 107 286 expr~ 2 / (1 + pow(27.1828 \, -$v1)) - 1;
#X obj 397 285 expr~ 2 / (1 + pow(27.1828 \, -$v1)) - 1;
#N canvas 2 50 454 522 autocompress~ 0;
#X obj 36 41 env~;
#X obj 36 64 dbtorms;
#X obj 36 156 line~;
#X obj 17 184 *~;
#X obj 17 228 outlet~;
#X obj 18 18 inlet~;
#X msg 36 133 \$1 10;
#X obj 36 88 clip 0.05 5;
#X obj 17 206 *~ 0.3;
#X obj 36 110 expr 1 / $f1;
#X connect 0 0 1 0;
#X connect 1 0 7 0;
#X connect 2 0 3 1;
#X connect 3 0 8 0;
#X connect 5 0 0 0;
#X connect 5 0 3 0;
#X connect 6 0 2 0;
#X connect 7 0 9 0;
#X connect 8 0 4 0;
#X connect 9 0 6 0;
#X restore 29 150 pd autocompress~;
#N canvas 284 135 458 526 autocompress~ 0;
#X obj 36 41 env~;
#X obj 36 64 dbtorms;
#X obj 36 156 line~;
#X obj 17 184 *~;
#X obj 17 228 outlet~;
#X obj 18 18 inlet~;
#X msg 36 133 \$1 10;
#X obj 36 88 clip 0.05 5;
#X obj 17 206 *~ 0.3;
#X obj 36 110 expr 1 / $f1;
#X connect 0 0 1 0;
#X connect 1 0 7 0;
#X connect 2 0 3 1;
#X connect 3 0 8 0;
#X connect 5 0 0 0;
#X connect 5 0 3 0;
#X connect 6 0 2 0;
#X connect 7 0 9 0;
#X connect 8 0 4 0;
#X connect 9 0 6 0;
#X restore 447 147 pd autocompress~;
#X obj 162 37 inlet~;
#X obj 339 37 inlet~;
#X obj 397 307 outlet~;
#X obj 107 308 outlet~;
#X connect 0 0 2 0;
#X connect 0 0 4 0;
#X connect 1 0 3 0;
#X connect 1 0 5 0;
#X connect 2 0 9 0;
#X connect 3 0 8 0;
#X connect 4 0 2 0;
#X connect 5 0 3 0;
#X connect 6 0 0 0;
#X connect 7 0 1 0;
#X restore 113 184 pd autocompress;
#X obj 43 86 *~ 0.66;
#X obj 263 83 *~ 0.66;
#X obj 199 206 *~ 0.33;
#X obj 113 206 *~ 0.33;
#X obj 169 121 *~ 0.25;
#X obj 93 121 *~ 0.25;
#X obj 43 55 inlet~;
#X obj 263 58 inlet~;
#X obj 113 228 outlet~;
#X obj 199 228 outlet~;
#X obj 124 6 loadbang;
#X msg 124 28 wet 0.05 \, dry 1 \, roomsize 0.9;
#X connect 1 0 5 0;
#X connect 1 1 4 0;
#X connect 2 0 1 0;
#X connect 2 0 7 0;
#X connect 3 0 1 1;
#X connect 3 0 6 0;
#X connect 4 0 11 0;
#X connect 5 0 10 0;
#X connect 6 0 0 1;
#X connect 7 0 0 0;
#X connect 8 0 2 0;
#X connect 9 0 3 0;
#X connect 12 0 13 0;
#X connect 13 0 0 0;
#X restore 63 540 pd mixer;
#X obj 64 350 *~ 1;
#X obj 447 14 tgl 15 0 channel-1/loop channel-1/loop empty 17 7 0 10
-262144 -1 -1 1 1;
#X obj 468 14 tgl 15 0 channel-2/loop channel-2/loop empty 17 7 0 10
-262144 -1 -1 1 1;
#X obj 73 577 dac~;
#X msg 531 562 \; \$1/rootnote 59.5 \; \$1/notes 0 \; arp/volume 0
\; arp-tuning 64 \;;
#X obj 64 120 *~ 1;
#X obj 489 14 tgl 15 0 channel-3/loop channel-3/loop empty 17 7 0 10
-262144 -1 -1 0 1;
#N canvas 606 176 850 818 controls 1;
#X obj 209 17 r \$0/bpm;
#X obj 209 39 + 70;
#X obj 209 61 s clock/bpm/set;
#N canvas 382 443 454 315 arp-filter 0;
#X obj 16 17 r MOUSE;
#X obj 16 39 list split 3;
#X obj 50 123 unpack f f;
#X obj 50 230 clip 0 127;
#X obj 131 184 0;
#X obj 50 206 expr $f2 + $f1;
#X obj 50 69 spigot;
#X obj 50 278 s arp-cutoff;
#X obj 87 95 unpack f f f;
#X obj 172 231 clip 0 127;
#X obj 253 185 0;
#X obj 172 207 expr $f2 + $f1;
#X obj 172 279 s arp-rez;
#X obj 107 145 / 2;
#X obj 50 145 / 2;
#X obj 50 252 int;
#X obj 172 253 int;
#X connect 0 0 1 0;
#X connect 1 0 8 0;
#X connect 1 1 6 0;
#X connect 2 0 14 0;
#X connect 2 1 13 0;
#X connect 3 0 4 0;
#X connect 3 0 15 0;
#X connect 4 0 5 1;
#X connect 5 0 3 0;
#X connect 6 0 2 0;
#X connect 8 1 6 1;
#X connect 9 0 10 0;
#X connect 9 0 16 0;
#X connect 10 0 11 1;
#X connect 11 0 9 0;
#X connect 13 0 11 0;
#X connect 14 0 5 0;
#X connect 15 0 7 0;
#X connect 16 0 12 0;
#X restore 339 16 pd arp-filter;
#X obj 35 153 input/loop-key 2 channel-1/loop;
#X obj 35 173 input/loop-key 3 channel-2/loop;
#X obj 35 193 input/loop-key 4 channel-3/loop;
#X obj 35 213 input/loop-key 5 channel-4/loop;
#X obj 35 233 input/loop-key 6 channel-5/loop;
#X obj 35 253 input/loop-key 7 channel-6/loop;
#X obj 412 157 input/key-chord-toggle 10 2 channel-1/mute;
#X obj 412 177 input/key-chord-toggle 10 3 channel-2/mute;
#X obj 412 197 input/key-chord-toggle 10 4 channel-3/mute;
#X obj 412 217 input/key-chord-toggle 10 5 channel-4/mute;
#X obj 412 237 input/key-chord-toggle 10 6 channel-5/mute;
#X obj 412 257 input/key-chord-toggle 10 7 channel-6/mute;
#X obj 412 287 input/key-chord-toggle 11 2 channel-1/snatch-enable
;
#X obj 412 307 input/key-chord-toggle 11 3 channel-2/snatch-enable
;
#X obj 412 327 input/key-chord-toggle 11 4 channel-3/snatch-enable
;
#X obj 412 347 input/key-chord-toggle 11 5 channel-4/snatch-enable
;
#X obj 412 367 input/key-chord-toggle 11 6 channel-5/snatch-enable
;
#X obj 412 387 input/key-chord-toggle 11 7 channel-6/snatch-enable
;
#X obj 412 437 input/key-chord-toggle 12 2 channel-1/fx-1;
#X obj 412 457 input/key-chord-toggle 12 3 channel-2/fx-1;
#X obj 412 477 input/key-chord-toggle 12 4 channel-3/fx-1;
#X obj 412 497 input/key-chord-toggle 12 5 channel-4/fx-1;
#X obj 412 517 input/key-chord-toggle 12 6 channel-5/fx-1;
#X obj 412 537 input/key-chord-toggle 12 7 channel-6/fx-1;
#X obj 34 279 input/key-mouse-knob 2 channel-1/volume;
#X obj 11 17 input/key-mouse-knob 41 \$0/bpm;
#X obj 14 93 input/key-mouse-knob 13 fx-1/fx-1 fx-1/fx-2;
#X obj 34 320 input/key-mouse-knob 4 channel-3/volume;
#X obj 34 340 input/key-mouse-knob 5 channel-4/volume;
#X obj 34 360 input/key-mouse-knob 6 channel-5/volume;
#X obj 34 380 input/key-mouse-knob 7 channel-6/volume;
#X obj 34 300 input/key-mouse-knob 3 channel-2/volume;
#N canvas 991 413 450 300 fx-key 0;
#X obj 13 17 r KEYBOARD;
#X obj 13 69 key-state 13;
#X obj 13 91 s fx-1/down;
#X obj 13 39 t a a;
#X obj 109 91 sel 1;
#X obj 109 113 f;
#X obj 109 135 + 1;
#X obj 109 157 mod 4;
#X obj 109 69 key-state 26;
#X obj 109 179 s fx-1/select;
#X connect 0 0 3 0;
#X connect 1 0 2 0;
#X connect 3 0 1 0;
#X connect 3 1 8 0;
#X connect 4 0 5 0;
#X connect 5 0 6 0;
#X connect 6 0 7 0;
#X connect 7 0 5 1;
#X connect 7 0 9 0;
#X connect 8 0 4 0;
#X restore 16 116 pd fx-key;
#N canvas 1322 101 551 471 snatcher 1;
#X obj 37 7 hradio 15 1 0 5 empty empty empty 0 -8 0 10 -262144 -1
-1 0;
#X obj 37 27 - 1;
#X obj 37 49 s mix/mixer/0/snatch;
#X msg 323 178 -1;
#X obj 411 157 t b f;
#X obj 323 156 sel 0 1;
#X obj 411 180 0;
#X obj 323 134 r snatch-down;
#X obj 411 135 r snatch-val;
#X floatatom 323 214 5 0 0 0 - - -, f 5;
#X text 224 9 sound snatcher;
#X obj 36 233 pack f f f;
#X obj 36 255 expr $f1 + $f2 * 2 + $f3 * 4;
#X obj 36 277 - 1;
#X obj 36 312 fx-looper CYCLE;
#X obj 36 132 key-state 37;
#X obj 122 132 key-state 38;
#X obj 207 132 key-state 39;
#X obj 36 74 r KEYBOARD;
#X obj 36 96 t a a a;
#X obj 122 175 t b f;
#X obj 207 175 t b f;
#X obj 261 52 r ALL/snatch;
#X obj 261 74 print snatch;
#X obj 36 334 t b f;
#X msg 36 424 \; channel-\$1/snatch \$2 \;;
#X obj 36 399 pack f f;
#X obj 36 355 range 6;
#X obj 36 377 + 1;
#X obj 36 154 change;
#X obj 122 154 change;
#X obj 207 154 change;
#X connect 0 0 1 0;
#X connect 1 0 2 0;
#X connect 3 0 9 0;
#X connect 4 0 6 0;
#X connect 4 1 6 1;
#X connect 5 0 3 0;
#X connect 5 1 6 0;
#X connect 6 0 9 0;
#X connect 7 0 5 0;
#X connect 8 0 4 0;
#X connect 11 0 12 0;
#X connect 12 0 13 0;
#X connect 13 0 14 0;
#X connect 14 0 24 0;
#X connect 15 0 29 0;
#X connect 16 0 30 0;
#X connect 17 0 31 0;
#X connect 18 0 19 0;
#X connect 19 0 15 0;
#X connect 19 1 16 0;
#X connect 19 2 17 0;
#X connect 20 0 11 0;
#X connect 20 1 11 1;
#X connect 21 0 11 0;
#X connect 21 1 11 2;
#X connect 22 0 23 0;
#X connect 24 0 27 0;
#X connect 24 1 26 1;
#X connect 26 0 25 0;
#X connect 27 0 28 0;
#X connect 28 0 26 0;
#X connect 29 0 11 0;
#X connect 30 0 20 0;
#X connect 31 0 21 0;
#X restore 490 14 pd snatcher;
#N canvas 835 465 450 300 metronome 0;
#X obj 8 13 r KEYBOARD;
#X obj 8 57 sel 1;
#X obj 8 79 s metronome;
#X obj 8 35 key-state 15;
#X connect 0 0 3 0;
#X connect 1 0 2 0;
#X connect 3 0 1 0;
#X restore 448 54 pd metronome;
#X connect 0 0 1 0;
#X connect 1 0 2 0;
#X restore 801 425 pd controls;
#X obj 268 55 *~ 1;
#X obj 289 36 tgl 15 0 empty empty empty 17 7 0 10 -262144 -1 -1 0
1;
#X obj 268 81 *~ 0.05;
#X obj 14 36 hip~ 2;
#X obj 437 253 random-stereo-phase 3 7;
#X obj 521 377 r clock/bpm/set;
#X obj 521 399 print clock/bpm/set;
#X obj 510 14 tgl 15 0 channel-4/loop channel-4/loop empty 17 7 0 10
-262144 -1 -1 0 1;
#X obj 532 14 tgl 15 0 channel-5/loop channel-5/loop empty 17 7 0 10
-262144 -1 -1 0 1;
#X obj 553 14 tgl 15 0 channel-6/loop channel-6/loop empty 17 7 0 10
-262144 -1 -1 1 1;
#X obj 447 34 tgl 15 0 channel-1/mute channel-1/mute empty 17 7 0 10
-262144 -1 -1 0 1;
#X obj 468 34 tgl 15 0 channel-2/mute channel-2/mute empty 17 7 0 10
-262144 -1 -1 0 1;
#X obj 489 34 tgl 15 0 channel-3/mute channel-3/mute empty 17 7 0 10
-262144 -1 -1 0 1;
#X obj 510 34 tgl 15 0 channel-4/mute channel-4/mute empty 17 7 0 10
-262144 -1 -1 0 1;
#X obj 532 34 tgl 15 0 channel-5/mute channel-5/mute empty 17 7 0 10
-262144 -1 -1 0 1;
#X obj 553 34 tgl 15 0 channel-6/mute channel-6/mute empty 17 7 0 10
-262144 -1 -1 0 1;
#X obj 447 74 tgl 15 0 channel-1/fx-1 channel-1/fx-1 empty 17 7 0 10
-262144 -1 -1 1 1;
#X obj 468 74 tgl 15 0 channel-2/fx-1 channel-2/fx-1 empty 17 7 0 10
-262144 -1 -1 0 1;
#X obj 489 74 tgl 15 0 channel-3/fx-1 channel-3/fx-1 empty 17 7 0 10
-262144 -1 -1 0 1;
#X obj 510 74 tgl 15 0 channel-4/fx-1 channel-4/fx-1 empty 17 7 0 10
-262144 -1 -1 0 1;
#X obj 532 74 tgl 15 0 channel-5/fx-1 channel-5/fx-1 empty 17 7 0 10
-262144 -1 -1 0 1;
#X obj 553 74 tgl 15 0 channel-6/fx-1 channel-6/fx-1 empty 17 7 0 10
-262144 -1 -1 0 1;
#X obj 801 361 tgl 15 0 empty empty empty 17 7 0 10 -262144 -1 -1 0
1;
#X msg 771 116 \; \$1/rootnote 60 \; arp-tuning 64 \; pd dsp 1;
#X obj 437 231 vol fx-1;
#X obj 447 54 tgl 15 0 channel-1/snatch-enable channel-1/snatch-enable
empty 17 7 0 10 -262144 -1 -1 1 1;
#X obj 468 54 tgl 15 0 channel-2/snatch-enable channel-2/snatch-enable
empty 17 7 0 10 -262144 -1 -1 1 1;
#X obj 489 54 tgl 15 0 channel-3/snatch-enable channel-3/snatch-enable
empty 17 7 0 10 -262144 -1 -1 0 1;
#X obj 510 54 tgl 15 0 channel-4/snatch-enable channel-4/snatch-enable
empty 17 7 0 10 -262144 -1 -1 0 1;
#X obj 532 54 tgl 15 0 channel-5/snatch-enable channel-5/snatch-enable
empty 17 7 0 10 -262144 -1 -1 0 1;
#X obj 553 54 tgl 15 0 channel-6/snatch-enable channel-6/snatch-enable
empty 17 7 0 10 -262144 -1 -1 0 1;
#X text 422 74 fx;
#X text 398 53 snatch;
#X text 410 32 mute;
#X text 410 13 loop;
#X obj 801 460 r KEYBOARD;
#X obj 801 502 spigot;
#X obj 801 524 print KEYBOARD;
#X obj 834 481 tgl 15 0 empty empty empty 17 7 0 10 -262144 -1 -1 1
1;
#X obj 113 176 single-loop channel-2 1 8;
#X obj 113 220 single-loop channel-4 3 8;
#X obj 113 198 single-loop channel-3 2 8;
#X obj 113 242 single-loop channel-5 4 8;
#X obj 113 264 single-loop channel-6 5 8;
#X floatatom 603 14 5 0 300 0 bpm clock/bpm -, f 5;
#X floatatom 604 34 5 0 0 0 fx fx-1/select -, f 5;
#X connect 0 0 21 0;
#X connect 1 0 43 0;
#X connect 2 0 6 0;
#X connect 3 0 2 0;
#X connect 5 0 38 0;
#X connect 5 0 38 1;
#X connect 6 0 9 0;
#X connect 7 0 67 0;
#X connect 8 0 7 1;
#X connect 9 0 40 0;
#X connect 10 0 9 1;
#X connect 16 0 17 0;
#X connect 17 0 39 0;
#X connect 20 0 66 0;
#X connect 21 0 20 0;
#X connect 22 0 46 0;
#X connect 23 0 7 0;
#X connect 24 0 34 0;
#X connect 25 0 34 1;
#X connect 28 0 5 0;
#X connect 34 0 11 0;
#X connect 34 0 38 0;
#X connect 34 1 12 0;
#X connect 34 1 38 1;
#X connect 35 0 29 0;
#X connect 35 0 30 0;
#X connect 40 0 35 0;
#X connect 40 0 32 0;
#X connect 40 0 82 0;
#X connect 40 0 83 0;
#X connect 40 0 84 0;
#X connect 40 0 85 0;
#X connect 40 0 86 0;
#X connect 43 0 45 0;
#X connect 44 0 43 1;
#X connect 45 0 31 0;
#X connect 45 0 33 0;
#X connect 46 0 40 0;
#X connect 47 0 26 0;
#X connect 47 1 27 0;
#X connect 48 0 49 0;
#X connect 65 0 19 0;
#X connect 67 0 47 0;
#X connect 78 0 79 0;
#X connect 79 0 80 0;
#X connect 81 0 79 1;
