#N struct 1064-f float x;
#N canvas 631 86 886 638 10;
#X declare -path ./patches;
#X declare -path ./patches/lib;
#X declare -path ./patches/lib/lolPd;
#X declare -path ./patches/lib/rjlib/rj;
#X declare -path ./patches/lib/list-abs;
#X declare -path ./patches/lib/s-abstractions/trunk;
#X declare -path ./patches/lib/pd-midi-guis;
#X declare -path ./patches/lib/blockhead;
#X obj 771 52 loadbang;
#X obj 268 19 6581-hum;
#X obj 65 35 arp;
#N canvas 335 79 450 631 arp-data 0;
#X obj 15 546 outlet;
#X obj 15 12 r \$0/notes;
#X text 44 194 add rootnote;
#X obj 15 215 lol teef ^ done \; each \; concat \$0/rootnote \; + \;
gather ^ done \; list prepend notes \;;
#X obj 15 129 route bang;
#X msg 273 262 list notes bang;
#X obj 300 13 r arp-cutoff;
#X obj 300 35 list prepend cutoff;
#X obj 217 420 r arp-wave;
#X obj 127 10 r \$0/rootnote;
#X msg 127 32 bang;
#X obj 15 84 list;
#X obj 15 34 t b a;
#X obj 127 54 delay 1;
#X obj 217 442 sel square saw triangle noise;
#X msg 217 464 1;
#X msg 267 464 0;
#X obj 217 492 list prepend waveform;
#N canvas 2 50 450 300 magic-freq 0;
#X obj 12 11 inlet;
#X obj 12 85 outlet;
#X obj 93 94 list length;
#X obj 116 185 >;
#X obj 93 116 t f f b;
#X obj 139 160 0;
#X obj 12 33 t a a a;
#X obj 116 210 sel 1;
#X obj 116 232 list;
#X obj 116 254 s magic/notes;
#X obj 227 20 r \$0/rootnote;
#X obj 227 42 s magic/rootnote;
#X connect 0 0 6 0;
#X connect 2 0 4 0;
#X connect 3 0 7 0;
#X connect 4 0 5 1;
#X connect 4 1 3 0;
#X connect 4 2 5 0;
#X connect 5 0 3 1;
#X connect 6 0 1 0;
#X connect 6 1 2 0;
#X connect 6 2 8 1;
#X connect 7 0 8 0;
#X connect 8 0 9 0;
#X connect 10 0 11 0;
#X restore 15 107 pd magic-freq;
#X connect 1 0 12 0;
#X connect 3 0 0 0;
#X connect 4 0 5 0;
#X connect 4 1 3 0;
#X connect 5 0 0 0;
#X connect 6 0 7 0;
#X connect 7 0 0 0;
#X connect 8 0 14 0;
#X connect 9 0 10 0;
#X connect 10 0 13 0;
#X connect 11 0 18 0;
#X connect 12 0 11 0;
#X connect 12 1 11 1;
#X connect 13 0 11 0;
#X connect 14 0 15 0;
#X connect 14 1 16 0;
#X connect 15 0 17 0;
#X connect 16 0 17 0;
#X connect 17 0 0 0;
#X connect 18 0 4 0;
#X restore 65 14 pd arp-data;
#N canvas 2 50 450 300 declarations 0;
#X obj 262 15 declare -path ./patches;
#X obj 234 40 declare -path ./patches/lib;
#X obj 193 64 declare -path ./patches/lib/lolPd;
#X obj 172 87 declare -path ./patches/lib/rjlib/rj;
#X obj 172 109 declare -path ./patches/lib/list-abs;
#X obj 88 153 declare -path ./patches/lib/s-abstractions/trunk;
#X obj 145 131 declare -path ./patches/lib/pd-midi-guis;
#X obj 88 175 declare -path ./patches/lib/blockhead;
#X restore 769 12 pd declarations;
#N canvas 2 50 450 300 metronome 0;
#X obj 20 252 outlet~;
#X obj 23 23 r clock/tick;
#X msg 23 75 1 \, 0 50;
#X obj 23 97 line~;
#X obj 20 191 osc~ 440;
#X obj 20 213 *~;
#X obj 23 47 t b f;
#X obj 98 73 mod 4;
#X obj 98 95 == 0;
#X obj 98 117 * 5;
#X obj 98 161 mtof;
#X obj 98 139 + 72;
#X connect 1 0 6 0;
#X connect 2 0 3 0;
#X connect 3 0 5 1;
#X connect 4 0 5 0;
#X connect 5 0 0 0;
#X connect 6 0 2 0;
#X connect 6 1 7 0;
#X connect 7 0 8 0;
#X connect 8 0 9 0;
#X connect 9 0 11 0;
#X connect 10 0 4 0;
#X connect 11 0 10 0;
#X restore 84 407 pd metronome;
#X obj 84 429 *~ 0.25;
#X obj 65 57 hip~ 5;
#X obj 268 41 *~ 0.125;
#X obj 65 79 *~ 0.125;
#X obj 437 209 fx/bus-fx1;
#X obj 494 177 r fx-1/select;
#X obj 437 231 vol fx-1;
#X obj 64 98 fx/reverb;
#X obj 132 49 r arp-reverb;
#X obj 39 604 s~ master/left;
#X obj 139 604 s~ master/right;
#X obj 813 336 gba-clock;
#N canvas 1302 637 450 300 keyboard 0;
#X obj 16 79 key-map key_comma -1 key_dot 1;
#N canvas 615 438 450 420 process-keys 0;
#X obj 19 15 inlet;
#X obj 19 37 t a a;
#X obj 51 60 print key;
#X obj 19 82 swap;
#X obj 19 114 pack f f;
#X obj 19 136 route 0 1 2;
#X obj 68 162 list append;
#X obj 68 338 list;
#X obj 68 285 list-unique;
#X obj 19 249 list-filter;
#X obj 107 249 != -1;
#X obj 68 307 list-sort;
#X obj 19 224 list;
#X obj 19 188 t b f;
#X obj 68 390 s \$0/notes;
#X connect 0 0 1 0;
#X connect 1 0 3 0;
#X connect 3 0 4 0;
#X connect 3 1 4 1;
#X connect 4 0 5 0;
#X connect 5 0 13 0;
#X connect 5 1 6 0;
#X connect 5 2 6 0;
#X connect 6 0 8 0;
#X connect 7 0 6 1;
#X connect 7 0 12 1;
#X connect 7 0 14 0;
#X connect 8 0 11 0;
#X connect 9 0 7 0;
#X connect 9 1 10 0;
#X connect 10 0 9 1;
#X connect 11 0 7 0;
#X connect 12 0 9 0;
#X connect 13 0 12 0;
#X connect 13 1 10 1;
#X restore 16 46 pd process-keys;
#X obj 16 11 key-map key_z 0 key_s 1 key_x 2 key_d 3 key_c 4 key_v
5 key_g 6 key_b 7 key_h 8 key_n 9 key_j 10 key_m 11;
#X obj 16 134 key-map key_y square key_t saw key_r triangle key_u noise
;
#N canvas 118 382 450 463 process-octave 0;
#X obj 13 11 inlet;
#X obj 13 33 unpack f f;
#X obj 80 58 > 0;
#X obj 13 95 list prepend;
#X obj 13 159 change;
#X obj 13 117 route 1 0;
#X msg 43 137 0;
#X obj 13 181 sel 0;
#X obj 45 316 + 60;
#X obj 45 292 * 12;
#X obj 63 204 min 3;
#X obj 63 226 max -3;
#X obj 45 248 + 0;
#X floatatom 45 270 5 0 0 0 - - -, f 5;
#X obj 45 388 s \$0/rootnote;
#X obj 45 358 + -0.5;
#X obj 91 276 / 127;
#X obj 91 298 - 0.5;
#X obj 91 254 r arp-tuning;
#X obj 91 320 t b f;
#X connect 0 0 1 0;
#X connect 1 0 3 0;
#X connect 1 1 2 0;
#X connect 2 0 3 1;
#X connect 3 0 5 0;
#X connect 4 0 7 0;
#X connect 5 0 4 0;
#X connect 5 1 6 0;
#X connect 6 0 4 0;
#X connect 7 1 12 0;
#X connect 8 0 15 0;
#X connect 9 0 8 0;
#X connect 10 0 11 0;
#X connect 11 0 12 1;
#X connect 12 0 10 0;
#X connect 12 0 13 0;
#X connect 13 0 9 0;
#X connect 15 0 14 0;
#X connect 16 0 17 0;
#X connect 17 0 19 0;
#X connect 18 0 16 0;
#X connect 19 0 15 0;
#X connect 19 1 15 1;
#X restore 16 101 pd process-octave;
#N canvas 121 514 450 300 process-wave 0;
#X obj 12 13 inlet;
#X obj 12 65 list split 1;
#X obj 84 157 list;
#X obj 52 90 sel 0;
#X obj 12 35 t a a;
#X msg 84 114 bang;
#X obj 84 179 list split 1;
#X obj 84 241 s arp-wave;
#X connect 0 0 4 0;
#X connect 1 1 3 0;
#X connect 2 0 6 0;
#X connect 3 1 5 0;
#X connect 4 0 1 0;
#X connect 4 1 2 1;
#X connect 5 0 2 0;
#X connect 6 0 7 0;
#X restore 16 156 pd process-wave;
#X connect 0 0 4 0;
#X connect 2 0 1 0;
#X connect 3 0 5 0;
#X restore 801 402 pd keyboard;
#X obj 801 358 midi-config;
#X msg 531 518 bang;
#X obj 531 540 \$0;
#X text 529 498 test note;
#X msg 531 562 \; \$1/rootnote 59.5 \; \$1/notes 0 \; arp/volume 0
\;;
#N canvas 2 50 450 300 hidkeys 0;
#X obj 14 16 netreceive -u 11031;
#X obj 14 38 t a a;
#X obj 14 82 print;
#X obj 53 82 route key mouse;
#X obj 70 43 tgl 16 0 empty empty debug 17 7 0 10 -262144 -1 -1 0 1
;
#X obj 14 60 spigot;
#X obj 53 126 s KEYBOARD;
#X connect 0 0 1 0;
#X connect 1 0 5 0;
#X connect 1 1 3 0;
#X connect 3 0 6 0;
#X connect 4 0 5 1;
#X connect 5 0 2 0;
#X restore 807 379 pd hidkeys;
#X obj 383 498 tgl 15 0 channel-1/volume empty empty 17 7 0 10 -262144
-1 -1 127 127;
#X obj 771 94 \$0;
#X msg 771 116 \; \$1/rootnote 60 \; pd dsp 1;
#X msg 771 74 bang;
#X obj 14 14 adc~ 1;
#X obj 73 577 dac~;
#X obj 438 153 catch~ fx/bus;
#X obj 437 253 random-stereo-phase 1 2;
#X obj 62 485 catch~ mix/left;
#X obj 107 514 catch~ mix/right;
#X obj 437 275 throw~ mix/left;
#X obj 572 276 throw~ mix/right;
#X obj 170 406 tgl 15 0 empty empty empty 17 7 0 10 -262144 -1 -1 1
1;
#X obj 84 451 *~ 0;
#X obj 64 353 throw~ mix/left;
#X obj 163 353 throw~ mix/right;
#X obj 268 73 throw~ mix/left;
#X obj 113 124 single-loop channel-1 0 8;
#X obj 368 73 throw~ mix/right;
#N canvas 2 50 450 300 mixer 0;
#X obj 119 152 freeverb~;
#N canvas 30 80 678 712 autocompress 0;
#X obj 162 62 hip~ 5;
#X obj 339 63 hip~ 5;
#X obj 107 286 expr~ 2 / (1 + pow(27.1828 \, -$v1)) - 1;
#X obj 397 285 expr~ 2 / (1 + pow(27.1828 \, -$v1)) - 1;
#N canvas 2 50 454 522 autocompress~ 0;
#X obj 36 41 env~;
#X obj 36 64 dbtorms;
#X obj 36 156 line~;
#X obj 17 184 *~;
#X obj 17 228 outlet~;
#X obj 18 18 inlet~;
#X msg 36 133 \$1 10;
#X obj 36 88 clip 0.05 5;
#X obj 17 206 *~ 0.3;
#X obj 36 110 expr 1 / $f1;
#X connect 0 0 1 0;
#X connect 1 0 7 0;
#X connect 2 0 3 1;
#X connect 3 0 8 0;
#X connect 5 0 0 0;
#X connect 5 0 3 0;
#X connect 6 0 2 0;
#X connect 7 0 9 0;
#X connect 8 0 4 0;
#X connect 9 0 6 0;
#X restore 29 150 pd autocompress~;
#N canvas 284 135 458 526 autocompress~ 0;
#X obj 36 41 env~;
#X obj 36 64 dbtorms;
#X obj 36 156 line~;
#X obj 17 184 *~;
#X obj 17 228 outlet~;
#X obj 18 18 inlet~;
#X msg 36 133 \$1 10;
#X obj 36 88 clip 0.05 5;
#X obj 17 206 *~ 0.3;
#X obj 36 110 expr 1 / $f1;
#X connect 0 0 1 0;
#X connect 1 0 7 0;
#X connect 2 0 3 1;
#X connect 3 0 8 0;
#X connect 5 0 0 0;
#X connect 5 0 3 0;
#X connect 6 0 2 0;
#X connect 7 0 9 0;
#X connect 8 0 4 0;
#X connect 9 0 6 0;
#X restore 447 147 pd autocompress~;
#X obj 162 37 inlet~;
#X obj 339 37 inlet~;
#X obj 397 307 outlet~;
#X obj 107 308 outlet~;
#X connect 0 0 2 0;
#X connect 0 0 4 0;
#X connect 1 0 3 0;
#X connect 1 0 5 0;
#X connect 2 0 9 0;
#X connect 3 0 8 0;
#X connect 4 0 2 0;
#X connect 5 0 3 0;
#X connect 6 0 0 0;
#X connect 7 0 1 0;
#X restore 113 184 pd autocompress;
#X obj 43 86 *~ 0.66;
#X obj 263 83 *~ 0.66;
#X obj 199 206 *~ 0.33;
#X obj 113 206 *~ 0.33;
#X obj 169 121 *~ 0.25;
#X obj 93 121 *~ 0.25;
#X obj 43 55 inlet~;
#X obj 263 58 inlet~;
#X obj 113 228 outlet~;
#X obj 199 228 outlet~;
#X obj 124 6 loadbang;
#X msg 124 28 wet 0.05 \, dry 1 \, roomsize 0.9;
#X connect 0 0 1 0;
#X connect 0 1 1 1;
#X connect 1 0 5 0;
#X connect 1 1 4 0;
#X connect 2 0 1 0;
#X connect 2 0 7 0;
#X connect 3 0 1 1;
#X connect 3 0 6 0;
#X connect 4 0 11 0;
#X connect 5 0 10 0;
#X connect 6 0 0 1;
#X connect 7 0 0 0;
#X connect 8 0 2 0;
#X connect 9 0 3 0;
#X connect 12 0 13 0;
#X connect 13 0 0 0;
#X restore 63 540 pd mixer;
#X obj 64 320 *~ 1;
#X obj 363 498 tgl 15 0 channel-1/loop empty empty 17 7 0 10 -262144
-1 -1 1 1;
#X obj 383 517 tgl 15 0 channel-2/volume empty empty 17 7 0 10 -262144
-1 -1 127 127;
#X obj 363 517 tgl 15 0 channel-2/loop empty empty 17 7 0 10 -262144
-1 -1 1 1;
#X obj 113 146 single-loop channel-2 1 8;
#X obj 113 190 single-loop channel-4 3 8;
#X obj 113 168 single-loop channel-3 2 8;
#X obj 113 224 single-loop channel-5 4 8;
#X obj 113 246 single-loop channel-6 5 8;
#X obj 113 268 single-loop channel-7 6 8;
#X obj 113 290 single-loop channel-8 7 8;
#X connect 0 0 28 0;
#X connect 1 0 8 0;
#X connect 2 0 7 0;
#X connect 3 0 2 0;
#X connect 5 0 6 0;
#X connect 6 0 38 0;
#X connect 7 0 9 0;
#X connect 8 0 41 0;
#X connect 8 0 43 0;
#X connect 9 0 13 0;
#X connect 10 0 12 0;
#X connect 11 0 10 1;
#X connect 12 0 32 0;
#X connect 13 0 45 0;
#X connect 13 0 42 0;
#X connect 13 0 49 0;
#X connect 13 0 50 0;
#X connect 13 0 51 0;
#X connect 13 0 52 0;
#X connect 13 0 53 0;
#X connect 13 0 54 0;
#X connect 13 0 55 0;
#X connect 14 0 13 1;
#X connect 20 0 21 0;
#X connect 21 0 23 0;
#X connect 26 0 27 0;
#X connect 28 0 26 0;
#X connect 31 0 10 0;
#X connect 32 0 35 0;
#X connect 32 1 36 0;
#X connect 33 0 44 0;
#X connect 34 0 44 1;
#X connect 37 0 38 1;
#X connect 38 0 30 1;
#X connect 38 0 30 0;
#X connect 44 0 15 0;
#X connect 44 0 30 0;
#X connect 44 1 16 0;
#X connect 44 1 30 1;
#X connect 45 0 39 0;
#X connect 45 0 40 0;
