#N canvas 503 618 450 300 10;
#X obj 270 20 r KEYBOARD;
#X obj 270 42 list split 1;
#X obj 304 66 unpack f f;
#X obj 361 89 == \$1;
#X obj 16 17 r MOUSE;
#X obj 304 88 == 1;
#X obj 304 120 &&;
#X obj 16 39 list split 3;
#X obj 50 123 unpack f f;
#X obj 50 230 clip 0 127;
#X obj 131 184 0;
#X obj 50 206 expr $f2 + $f1;
#X obj 50 274 s \$2;
#X obj 195 229 clip 0 127;
#X obj 276 183 0;
#X obj 195 205 expr $f2 + $f1;
#X obj 195 273 s \$3;
#X obj 50 69 spigot;
#X obj 107 145 / 2;
#X obj 195 251 int;
#X obj 50 252 int;
#X obj 50 145 / 2;
#X connect 0 0 1 0;
#X connect 1 1 2 0;
#X connect 2 0 5 0;
#X connect 2 1 3 0;
#X connect 3 0 6 1;
#X connect 4 0 7 0;
#X connect 5 0 6 0;
#X connect 6 0 17 1;
#X connect 7 1 17 0;
#X connect 8 0 21 0;
#X connect 8 1 18 0;
#X connect 9 0 10 0;
#X connect 9 0 20 0;
#X connect 10 0 11 1;
#X connect 11 0 9 0;
#X connect 13 0 14 0;
#X connect 13 0 19 0;
#X connect 14 0 15 1;
#X connect 15 0 13 0;
#X connect 17 0 8 0;
#X connect 18 0 15 0;
#X connect 19 0 16 0;
#X connect 20 0 12 0;
#X connect 21 0 11 0;
