#N canvas 932 282 450 300 10;
#X obj 12 10 r KEYBOARD;
#X obj 12 32 list split 1;
#X obj 46 150 &&;
#X obj 46 57 t a a;
#X obj 179 92 key-state \$1;
#X obj 46 92 key-state \$2;
#X obj 46 172 sel 1;
#X obj 46 194 f;
#X obj 46 216 == 0;
#X obj 46 238 s \$3;
#X connect 0 0 1 0;
#X connect 1 1 3 0;
#X connect 2 0 6 0;
#X connect 3 0 5 0;
#X connect 3 1 4 0;
#X connect 4 0 2 1;
#X connect 5 0 2 0;
#X connect 6 0 7 0;
#X connect 7 0 8 0;
#X connect 8 0 7 1;
#X connect 8 0 9 0;
