#N struct 1439-f float x;
#N canvas 1249 254 450 532 10;
#X obj 12 10 r KEYBOARD;
#X obj 12 32 list split 1;
#X obj 46 206 unpack f f;
#X obj 103 229 == \$1;
#X obj 46 228 == 1;
#X obj 46 260 &&;
#X obj 46 444 f;
#X obj 46 466 == 0;
#X obj 46 488 s \$2;
#X obj 46 365 timer;
#X obj 46 332 sel 1 0;
#X obj 46 302 change;
#X obj 46 387 < 250;
#X obj 46 409 sel 1;
#X obj 73 132 list length;
#X obj 46 81 t a a;
#X obj 73 106 unique-keys;
#X obj 46 56 list split 2;
#X obj 73 154 == 1;
#X obj 46 282 &&;
#X connect 0 0 1 0;
#X connect 1 1 17 0;
#X connect 2 0 4 0;
#X connect 2 1 3 0;
#X connect 3 0 5 1;
#X connect 4 0 5 0;
#X connect 5 0 19 0;
#X connect 6 0 7 0;
#X connect 7 0 6 1;
#X connect 7 0 8 0;
#X connect 9 0 12 0;
#X connect 10 0 9 0;
#X connect 10 1 9 1;
#X connect 11 0 10 0;
#X connect 12 0 13 0;
#X connect 13 0 6 0;
#X connect 14 0 18 0;
#X connect 15 0 2 0;
#X connect 15 1 16 0;
#X connect 16 0 14 0;
#X connect 17 0 15 0;
#X connect 18 0 19 1;
#X connect 19 0 11 0;
